<svg xmlns="http://www.w3.org/2000/svg" aria-hidden="true" style="width:0;height:0;position:absolute;overflow:hidden"><defs><symbol id="icon-dump" viewBox="0 0 32 32"><path d="M32 16a16 16 0 1 1-32 0 16 16 0 0 1 32 0z"/><path stroke-linecap="round" stroke-linejoin="round" stroke-width="1.41" d="M13.88 9.65h4.24m-8.47 2.12h12.7m-1.4 0-.5 7.42c-.08 1.11-.12 1.67-.36 2.1a2.1 2.1 0 0 1-.91.85c-.44.21-1 .21-2.12.21h-2.13c-1.11 0-1.67 0-2.1-.21-.4-.19-.71-.49-.93-.86-.24-.42-.27-.98-.35-2.09l-.5-7.42m3.54 3.17v3.53m2.82-3.53v3.53"/></symbol><symbol id="icon-dump1" viewBox="0 0 32 32"><path d="M32 16a16 16 0 1 1-32 0 16 16 0 0 1 32 0z"/><path stroke-linecap="round" stroke-linejoin="round" stroke-width="1.41" d="M13.88 9.65h4.24m-8.47 2.12h12.7m-1.4 0-.5 7.42c-.08 1.11-.12 1.67-.36 2.1a2.1 2.1 0 0 1-.91.85c-.44.21-1 .21-2.12.21h-2.13c-1.11 0-1.67 0-2.1-.21-.4-.19-.71-.49-.93-.86-.24-.42-.27-.98-.35-2.09l-.5-7.42m3.54 3.17v3.53m2.82-3.53v3.53"/></symbol><symbol id="icon-logo" viewBox="0 0 32 32"><path d="m0 0 16.34 16.17L32 32V0H0z"/><path d="M4.46 4.23 16.4 16.06l11.26 11.48H4.46V4.23z"/><path d="M27.73 27.62 15.8 15.79 4.53 4.3h23.2v23.32z"/><path d="m9.26 9.03 13.6 13.6H9.26V9.03z"/><path d="m9.26 9.03 13.6 13.6V9.03H9.26z"/></symbol><symbol id="icon-icon-herb" viewBox="0 0 20 32"><path d="M9 30.89a8.66 8.66 0 0 1-3.4-5.3v-.05H0V2.42a9.8 9.8 0 0 1 5.39 7.88l.84 6.49-.4-.05c-.9 0-1.68.82-1.68 1.61 0 .75.6 1.38 1.38 1.55l1.02.23c1.67-3.06 2.63-6.05 2.63-8.98 0-2.64-.36-5.29-.43-8 0-1.2.49-2.3 1.26-3.15a4.66 4.66 0 0 1 1.25 3.16c0 2.7-.42 5.35-.42 8 0 2.92.95 5.91 2.63 8.97l1.02-.23c.78-.17 1.37-.81 1.37-1.55 0-.8-.78-1.6-1.67-1.6l-.42.05.84-6.49c.43-3.28 2.4-6.45 5.39-7.88v23.12h-5.58a8.27 8.27 0 0 1-3.41 5.35c-.42.29-.78.63-1.02 1.1A3 3 0 0 0 9 30.89zM2.66 17.56c.23-.86.89-1.61 1.74-2.08l-.66-5.35a8.28 8.28 0 0 0-2.05-4.38h.01v11.79h.96v.02zm2.82 6.37c0-.81.12-1.55.3-2.3l-.79-.18a3.38 3.38 0 0 1-2.33-2.3H1.7v4.78h3.78zm3.7 0c0-.98-.77-1.84-1.8-1.96-.17.63-.3 1.27-.3 1.96h2.1zm0 1.62H7.32c.3 1.26.96 2.42 1.87 3.4v-3.4zm2.64-5a19.83 19.83 0 0 1-1.8-3.97 19.78 19.78 0 0 1-1.8 3.97c.72.16 1.31.63 1.8 1.15.48-.52 1.08-.99 1.8-1.15zm1.14 3.38c0-.7-.12-1.32-.3-1.96-1.01.12-1.8.98-1.8 1.96h2.1zm-.23 1.62h-1.87v3.4c.91-1 1.57-2.14 1.87-3.4zm5.62-1.62v-4.78h-.96a3.41 3.41 0 0 1-2.33 2.3l-.78.18c.17.75.3 1.49.3 2.3h3.77zm0-6.37V5.76a7.8 7.8 0 0 0-2.04 4.37l-.65 5.35c.84.47 1.5 1.2 1.73 2.08h.96z"/></symbol><symbol id="icon-user" viewBox="0 0 32 32"><path d="M32 16a16 16 0 1 1-32 0 16 16 0 0 1 32 0z"/><path d="M10.52 22.85a5.48 5.48 0 1 1 10.96 0H10.52zM16 16.68a4.1 4.1 0 1 1 0-8.2 4.1 4.1 0 0 1 0 8.2z"/></symbol><symbol id="icon-align-left" viewBox="0 0 32 32"><path stroke-linecap="round" stroke-linejoin="round" stroke-width="2.29" d="M22.67 13.33H4M28 8H4m24 10.67H4M22.67 24H4"/></symbol><symbol id="icon-lock" viewBox="0 0 32 32"><path stroke-linecap="round" stroke-linejoin="round" stroke-width="2.29" d="M22.67 14.67v-4a6.67 6.67 0 0 0-13.34 0v4M10.4 28h11.2c2.24 0 3.36 0 4.22-.44a4 4 0 0 0 1.74-1.74c.44-.86.44-1.98.44-4.22v-.53c0-2.24 0-3.36-.44-4.22a4 4 0 0 0-1.74-1.75c-.86-.43-1.98-.43-4.22-.43H10.4c-2.24 0-3.36 0-4.22.43a4 4 0 0 0-1.74 1.75C4 17.71 4 18.83 4 21.07v.53c0 2.24 0 3.36.44 4.22a4 4 0 0 0 1.74 1.74c.86.44 1.98.44 4.22.44z"/></symbol><symbol id="icon-mail" viewBox="0 0 32 32"><path stroke-linecap="round" stroke-linejoin="round" stroke-width="2.29" d="m28.67 24-8.86-8m-7.62 0-8.86 8M2.67 9.33l10.88 7.62c.89.62 1.33.93 1.8 1.05.43.1.87.1 1.3 0a6.1 6.1 0 0 0 1.8-1.05l10.89-7.62M9.07 26.67h13.86c2.24 0 3.36 0 4.22-.44a4 4 0 0 0 1.75-1.75c.43-.85.43-1.97.43-4.21v-8.54c0-2.24 0-3.36-.43-4.21a4 4 0 0 0-1.75-1.75c-.86-.44-1.98-.44-4.22-.44H9.07c-2.24 0-3.36 0-4.22.44A4 4 0 0 0 3.1 7.52c-.43.85-.43 1.97-.43 4.21v8.54c0 2.24 0 3.36.43 4.21a4 4 0 0 0 1.75 1.75c.86.44 1.98.44 4.22.44z"/></symbol><symbol id="icon-x-close" viewBox="0 0 32 32"><path stroke-linecap="round" stroke-linejoin="round" stroke-width="3.43" d="M24 8 8 24M8 8l16 16"/></symbol><symbol id="icon-scrol-up" viewBox="0 0 32 32"><path d="M4.5 19.6 15.7 8.37c.13-.14.28-.23.43-.29s.33-.08.5-.08c.18 0 .35.03.5.08s.3.15.44.29L28.8 19.6c.31.31.47.7.47 1.17s-.17.86-.5 1.2a1.6 1.6 0 0 1-2.34 0l-9.8-9.8-9.8 9.8c-.3.3-.7.46-1.15.46s-.85-.16-1.18-.5a1.62 1.62 0 0 1 0-2.33z"/></symbol><symbol id="icon-arrow-narrow-right" viewBox="0 0 32 32"><path stroke-linecap="round" stroke-linejoin="round" stroke-width="3.2" d="M5.33 16h21.34m0 0-8-8m8 8-8 8"/></symbol><symbol id="icon-down-arrow" viewBox="0 0 28 32"><path d="M5.9 12h16.5L15 20.4a1.1 1.1 0 0 1-1.67 0L5.9 12z"/></symbol><symbol id="icon-logo-1" viewBox="0 0 32 32"><path fill="#f6f6f6" style="fill:var(--color1,#f6f6f6)" d="m0 0 16.343 16.171L32 32V0H0z"/><path fill="#f6f6f6" style="fill:var(--color1,#f6f6f6)" d="M4.457 4.229 16.4 16.058l11.257 11.486h-23.2V4.23z"/><path fill="#4f2ee8" style="fill:var(--color2,#4f2ee8)" d="M27.733 27.618 15.79 15.789 4.533 4.303h23.2v23.314z"/><path fill="#4f2ee8" style="fill:var(--color2,#4f2ee8)" d="m9.257 9.029 13.6 13.6h-13.6v-13.6z"/><path fill="#f6f6f6" style="fill:var(--color1,#f6f6f6)" d="m9.257 9.029 13.6 13.6v-13.6h-13.6z"/></symbol><symbol id="icon-Bookshelf" viewBox="0 0 178 32"><path d="M22.176 8.533c0-4.731-3.497-7.406-9.545-7.406H0v29.417h13.33c6.089 0 9.998-2.921 9.998-8.599 0-4.402-2.633-6.665-5.719-7.2v-.082c2.427-.823 4.567-2.51 4.567-6.13zm-17.28 4.772V5.282h7.858c2.921 0 4.526 1.44 4.526 4.032s-1.317 3.991-4.814 3.991h-7.57zm0 3.662h8.599c3.086 0 4.937 1.687 4.937 4.69 0 2.757-1.275 4.731-5.472 4.731H4.896v-9.422zM35.89 31.161c-6.583 0-10.574-4.567-10.574-11.109S29.307 8.943 35.89 8.943s10.574 4.567 10.574 11.109-3.991 11.109-10.574 11.109zm0-3.538c4.114 0 6.254-3.25 6.254-7.57 0-4.361-2.139-7.57-6.254-7.57s-6.254 3.209-6.254 7.57c0 4.32 2.139 7.57 6.254 7.57zM58.912 31.161c-6.583 0-10.574-4.567-10.574-11.109S52.329 8.943 58.912 8.943s10.574 4.567 10.574 11.109-3.991 11.109-10.574 11.109zm0-3.538c4.114 0 6.254-3.25 6.254-7.57 0-4.361-2.139-7.57-6.254-7.57s-6.254 3.209-6.254 7.57c0 4.32 2.139 7.57 6.254 7.57zM72.472 1.127v29.417h4.32v-7.611l2.921-2.757 6.624 10.368h5.184l-8.846-13.207 7.982-7.817H85.35l-8.558 8.434V1.127h-4.32zM101.935 17.831c-3.045-.699-5.39-.864-5.39-3.003 0-1.481 1.399-2.469 3.991-2.469 3.374 0 4.197 1.687 4.485 3.333h4.197c-.288-3.662-3.003-6.747-8.722-6.747-5.266 0-8.311 2.757-8.311 6.213 0 4.773 4.526 5.431 7.858 6.213 3.086.741 5.595.946 5.595 3.579 0 1.317-1.275 2.798-4.279 2.798-4.443 0-5.431-1.934-5.637-4.197h-4.197c.206 4.443 3.127 7.611 9.915 7.611 5.102 0 8.558-2.51 8.558-6.542 0-5.019-4.197-5.883-8.064-6.789zM124.123 8.944c-3.538 0-5.719 1.646-6.83 3.291h-.082V1.126h-4.32v29.417h4.32V17.748c0-3.127 2.263-5.143 5.431-5.143 3.003 0 4.197 1.81 4.197 4.649v13.289h4.361V16.02c0-4.814-3.086-7.077-7.077-7.077zM144.448 27.623c-3.826 0-6.089-2.921-6.089-6.459h16.128c0-7.488-3.333-12.219-10.121-12.219-6.336 0-10.327 4.279-10.327 11.109 0 6.583 3.991 11.109 10.533 11.109 5.39 0 8.517-3.045 9.586-7.035h-4.32c-.37 1.275-1.81 3.497-5.39 3.497zm-.082-15.264c3.497 0 5.801 2.345 5.801 5.595h-11.808c0-3.25 2.51-5.595 6.007-5.595zM157.531 1.127v29.417h4.361V1.127h-4.361zM176.003 4.665V1.127a15.12 15.12 0 0 0-2.88-.288c-3.456 0-5.349 1.563-5.349 6.007V9.52h-3.003v3.538h3.003v17.486h4.361V13.058h3.867V9.52h-3.867V7.216c0-2.386 1.07-2.674 3.867-2.551z"/></symbol><symbol id="icon-cart" viewBox="0 0 32 32"><path d="M25.334 9.333h-4V8a5.332 5.332 0 1 0-10.666 0v1.333h-4a1.335 1.335 0 0 0-1.334 1.334v14.667a4.003 4.003 0 0 0 4 4h13.333a4.003 4.003 0 0 0 4-4V10.667a1.335 1.335 0 0 0-1.334-1.334zM13.334 8a2.668 2.668 0 0 1 5.334 0v1.333h-5.333V8zM24 25.333a1.335 1.335 0 0 1-1.334 1.334H9.333a1.335 1.335 0 0 1-1.334-1.334V12h2.667v1.333a1.335 1.335 0 0 0 2.277.943c.25-.251.39-.589.39-.943V12h5.333v1.333a1.335 1.335 0 0 0 2.277.943c.25-.251.391-.589.391-.943V12h2.667v13.333z"/></symbol><symbol id="icon-bag-shop" viewBox="0 0 25 32"><path d="M22.814 8.593H18.37V7.112a5.93 5.93 0 0 0-5.926-5.926 5.93 5.93 0 0 0-5.926 5.926v1.481H2.074a1.482 1.482 0 0 0-1.482 1.482v16.296a4.444 4.444 0 0 0 4.445 4.445h14.815a4.444 4.444 0 0 0 4.445-4.445V10.075a1.482 1.482 0 0 0-1.482-1.482zM9.481 7.111a2.962 2.962 0 0 1 5.058-2.095c.556.556.868 1.309.868 2.095v1.481H9.481V7.111zM21.333 26.37a1.478 1.478 0 0 1-1.482 1.481H5.036a1.482 1.482 0 0 1-1.482-1.481V11.555h2.963v1.481a1.482 1.482 0 1 0 2.964 0v-1.481h5.926v1.481a1.482 1.482 0 1 0 2.964 0v-1.481h2.963V26.37z"/></symbol></defs></svg>