<svg aria-hidden="true" style="width:0;height:0;position:absolute;overflow:hidden" xmlns="http://www.w3.org/2000/svg"><defs><symbol id="icon-apple" viewBox="0 0 32 32"><path d="M27.13 28.224c-1.122-2.278-1.109-4.64.362-6.711l.037-.006c1.658-.324 2.78-1.674 1.127-2.771a.37.37 0 0 0-.361-.164c-2.416.325-4.842.306-7.271.196.487-.287.903-.749 1.221-1.169 1.625-2.148 2.533-4.941 2.859-7.592.22-1.786-.29-3.652-2.183-4.16-1.517-.407-3.309.124-4.826.704.159-.911.307-1.917.296-2.89.584.384 1.543.325 2.174.142 1.309-.38 2.799-1.538 3.09-2.928.035-.167-.018-.364-.182-.447-1.794-.905-4.322-.351-5.361 1.375a3.746 3.746 0 0 0-.553-1.078c-.177-.235-.59-.109-.501.211.292 1.048.564 1.969.591 3.077.018.737-.037 1.479-.103 2.218-1.446-1.311-4.072-1.641-5.541-.237-1.672 1.597-1.236 4.113-.723 6.129.492 1.933 1.233 4.023 2.309 5.707.125.196.276.402.448.591-1.5-.035-2.999-.014-4.495.124-1.997.184-3.729.669-5.163 2.121-.129.131-.248.27-.364.411-.085-.039-.211.01-.248.105-.034.087-.061.172-.091.258a.174.174 0 0 0-.193.159 9.498 9.498 0 0 0-.033.295c-.613 1.043-.95 2.249-1.024 3.448-.103 1.663.529 3.269 1.608 4.512 1.572 1.81 3.856 2.102 6.112 2.019 3.071-.113 6.131.194 9.196.11 3.132-.085 6.279-.669 9.414-.392.2.018.275-.232.181-.368.257-.171.459-.444.574-.869.426-1.573-1.154-2.07-2.383-2.134zM17.54 17.78c.67-.271 1.174.432 1.72.897-.901-.052-1.802-.107-2.702-.155.28-.271.557-.571.982-.742zm-5.279 1.625c.459-.027.919-.024 1.38-.003a81.14 81.14 0 0 0-1.394.02.2.2 0 0 0 .014-.016zM7.687 29.13c-.083-.035-.164-.073-.248-.107l.23.033.347.074a3.61 3.61 0 0 1-.329 0zm16.435-.659c-1.649.149-3.347.073-5.001.082-3.254.019-6.592.129-9.834-.2-1.576-.16-2.836-.845-3.405-2.385-.705-1.909.639-3.608 2.338-4.288 3.112-1.246 6.966-.582 10.201-.324 1.516.121 3.028.131 4.547.184 1.193.041 2.438.176 3.645.084a6.145 6.145 0 0 0-.808 1.939c-3.214.26-6.445.03-9.659-.117-1.615-.074-3.229-.128-4.846-.104-1.107.017-2.579-.083-3.584.443-.041.022-.033.09.013.1 1.105.239 2.434-.031 3.571-.033 1.616-.002 3.233.093 4.846.18 3.184.173 6.376.377 9.559.087a5.955 5.955 0 0 0 .014 1.622c-1.311-.322-2.951-.044-4.259.001-1.99.069-3.96.029-5.949-.01-1.859-.037-3.717.066-5.57-.081-.65-.052-2.003-.271-2.452.374-.041.058.026.13.087.114 1.051-.273 2.144-.106 3.205.029 1.865.238 3.85.08 5.731.13 1.655.044 3.293.032 4.947-.04 1.398-.061 2.947.101 4.334-.109.155.714.44 1.414.856 2.071-.846.025-1.686.173-2.528.249z"/></symbol><symbol id="icon-book_shop" viewBox="0 0 32 32"><path d="M31.363 27.186h-.184v-14.59a.637.637 0 0 0-.637-.637H17.085V3.321a1.78 1.78 0 0 0-1.778-1.778h-4.348a1.78 1.78 0 0 0-1.778 1.778v2.183a1.784 1.784 0 0 0-.503-.073H5.223a1.78 1.78 0 0 0-1.778 1.778v4.749H1.462a.637.637 0 0 0-.637.637v14.59H.641a.637.637 0 0 0-.637.637v1.996c0 .352.285.637.637.637h30.725a.637.637 0 0 0 .637-.637v-1.996a.637.637 0 0 0-.637-.637zM10.454 3.321c0-.278.226-.503.503-.503h4.348c.278 0 .503.226.503.503v8.612h-.892V4.347a.637.637 0 0 0-.637-.637h-2.295a.637.637 0 0 0-.637.637v7.586h-.892V3.321zm3.187 1.664v6.948h-1.02V4.985h1.02zM4.717 7.21c0-.278.226-.503.503-.503h3.455c.278 0 .503.226.503.503v4.724H4.716V7.21zm-2.62 6.024h27.807v13.952h-1.76v-9.568a.637.637 0 0 0-.637-.637h-6.386a.637.637 0 0 0-.637.637v9.568H2.098V13.234zm20.351 8.804h-.691v-3.783h5.111v8.931h-5.111v-3.873h.691a.637.637 0 1 0 0-1.274zm8.277 7.144H1.275v-.721h29.45v.721z"/><path d="M18.213 16.159H4.621a.637.637 0 0 0-.637.637v6.448c0 .352.285.637.637.637h13.592a.637.637 0 0 0 .637-.637v-6.448a.637.637 0 0 0-.637-.637zM5.258 17.434h12.317v2.834H5.258v-2.834zm0 5.173v-1.064h12.317v1.064H5.258zM28.454 14.009h-6.322a.637.637 0 1 0 0 1.274h6.322a.637.637 0 1 0 0-1.274zM20.173 14.009h-.506a.637.637 0 1 0 0 1.274h.506a.637.637 0 1 0 0-1.274z"/></symbol><symbol id="icon-amazon" viewBox="0 0 106 32"><path d="M65.759 24.999c-6.154 4.536-15.073 6.956-22.753 6.956-10.768 0-20.462-3.983-27.796-10.607-.576-.521-.06-1.231.631-.825 7.915 4.605 17.701 7.375 27.809 7.375 6.818 0 14.317-1.411 21.213-4.338 1.042-.443 1.913.682.894 1.438z"/><path d="M68.318 22.072c-.784-1.005-5.2-.475-7.182-.24-.604.074-.696-.452-.152-.83 3.517-2.475 9.288-1.761 9.961-.931.673.834-.175 6.619-3.48 9.38-.507.424-.991.198-.765-.364.742-1.853 2.406-6.006 1.618-7.016zM61.274 3.528V1.122c0-.364.277-.608.608-.608h10.773c.346 0 .622.249.622.608v2.06c-.005.346-.295.797-.811 1.512l-5.582 7.97c2.074-.051 4.264.258 6.145 1.318.424.24.539.59.572.936v2.568c0 .35-.387.761-.793.549-3.314-1.738-7.716-1.927-11.381.018-.373.203-.765-.203-.765-.553v-2.438c0-.392.005-1.06.396-1.655l6.467-9.274h-5.628c-.346 0-.622-.244-.622-.604zM21.978 18.541h-3.277a.619.619 0 0 1-.585-.558V1.163c0-.337.281-.604.631-.604h3.056a.618.618 0 0 1 .595.562V3.32h.06c.797-2.125 2.296-3.116 4.315-3.116 2.051 0 3.333.991 4.255 3.116.793-2.125 2.595-3.116 4.527-3.116 1.374 0 2.876.567 3.794 1.839 1.037 1.415.825 3.471.825 5.273l-.005 10.616a.618.618 0 0 1-.632.608h-3.273a.623.623 0 0 1-.59-.608V9.017c0-.71.065-2.48-.092-3.153-.244-1.129-.977-1.447-1.927-1.447-.793 0-1.623.53-1.959 1.378s-.304 2.268-.304 3.222v8.915a.618.618 0 0 1-.631.608h-3.273a.62.62 0 0 1-.59-.608l-.005-8.915c0-1.876.309-4.637-2.019-4.637-2.355 0-2.263 2.692-2.263 4.637v8.915a.618.618 0 0 1-.631.608zM82.552.205c4.863 0 7.495 4.176 7.495 9.486 0 5.13-2.909 9.201-7.495 9.201-4.775 0-7.375-4.176-7.375-9.38 0-5.236 2.632-9.307 7.375-9.307zm.028 3.434c-2.415 0-2.568 3.291-2.568 5.342 0 2.056-.032 6.444 2.54 6.444 2.54 0 2.66-3.54 2.66-5.697 0-1.42-.06-3.116-.489-4.462-.369-1.171-1.102-1.627-2.143-1.627zM96.353 18.541h-3.264a.623.623 0 0 1-.59-.608l-.005-16.825a.62.62 0 0 1 .632-.549h3.038a.626.626 0 0 1 .585.47v2.572h.06c.917-2.3 2.203-3.397 4.467-3.397 1.47 0 2.904.53 3.826 1.982.857 1.346.857 3.609.857 5.236V18.01c-.037.295-.309.53-.632.53h-3.287c-.3-.023-.549-.244-.581-.53V8.874c0-1.839.212-4.531-2.051-4.531-.797 0-1.53.535-1.895 1.346-.461 1.028-.521 2.051-.521 3.185v9.058a.63.63 0 0 1-.641.608zM52.687 10.507v-.71c-2.369 0-4.872.507-4.872 3.3 0 1.415.733 2.374 1.991 2.374.922 0 1.747-.567 2.268-1.489.645-1.134.613-2.199.613-3.476zm3.305 7.988a.683.683 0 0 1-.774.078c-1.088-.903-1.281-1.323-1.881-2.185-1.798 1.835-3.07 2.383-5.402 2.383-2.757 0-4.905-1.701-4.905-5.107 0-2.66 1.443-4.471 3.494-5.356 1.779-.784 4.264-.922 6.163-1.139v-.424c0-.779.06-1.701-.396-2.374-.401-.604-1.166-.853-1.839-.853-1.249 0-2.365.641-2.637 1.968-.055.295-.272.585-.567.599l-3.181-.341c-.267-.06-.562-.277-.489-.687.733-3.854 4.213-5.015 7.329-5.015 1.595 0 3.678.424 4.937 1.632 1.595 1.489 1.443 3.476 1.443 5.638v5.107c0 1.535.636 2.208 1.235 3.038.212.295.258.65-.009.871a138.67 138.67 0 0 0-2.512 2.176l-.009-.009zM9.721 10.507v-.71c-2.369 0-4.872.507-4.872 3.3 0 1.415.733 2.374 1.991 2.374.922 0 1.747-.567 2.268-1.489.645-1.134.613-2.199.613-3.476zm3.305 7.988a.683.683 0 0 1-.774.078c-1.088-.903-1.281-1.323-1.881-2.185-1.798 1.835-3.07 2.383-5.402 2.383-2.756 0-4.905-1.701-4.905-5.107 0-2.66 1.443-4.471 3.494-5.356 1.779-.784 4.264-.922 6.163-1.139v-.424c0-.779.06-1.701-.396-2.374-.401-.604-1.166-.853-1.839-.853-1.249 0-2.365.641-2.637 1.968-.055.295-.272.585-.567.599l-3.181-.341c-.267-.06-.562-.277-.489-.687C1.345 1.203 4.825.042 7.941.042c1.595 0 3.678.424 4.937 1.632 1.595 1.489 1.443 3.476 1.443 5.638v5.107c0 1.535.636 2.208 1.235 3.038.212.295.258.65-.009.871a138.67 138.67 0 0 0-2.512 2.176l-.009-.009z"/></symbol></defs></svg>