<svg xmlns="http://www.w3.org/2000/svg" aria-hidden="true" style="position:absolute;width:0;height:0;overflow:hidden">
    <defs>
        <symbol id="tryzub" viewBox="0 0 20 32">
<path fill="#fff" style="fill: var(--color1, #fff)" d="M9.005 30.888c-1.738-1.262-2.991-3.156-3.414-5.351h-5.591v-23.117c2.991 1.443 5.153 4.599 5.388 7.876l0.846 6.493-0.407-0.045c-0.893 0-1.676 0.812-1.676 1.608 0 0.752 0.595 1.383 1.378 1.548l1.018 0.226c1.676-3.051 2.631-6.042 2.631-8.973 0-2.645-0.36-5.291-0.423-7.996 0-1.202 0.486-2.3 1.253-3.156 0.783 0.857 1.253 1.954 1.253 3.156 0 2.705-0.423 5.351-0.423 7.996 0 2.931 0.955 5.922 2.631 8.973l1.018-0.226c0.783-0.165 1.378-0.812 1.378-1.548 0-0.812-0.783-1.608-1.676-1.608l-0.423 0.060 0.846-6.493c0.423-3.277 2.396-6.448 5.388-7.876v23.117h-5.576c-0.423 2.179-1.613 4.148-3.414 5.351-0.423 0.286-0.783 0.631-1.018 1.097-0.219-0.466-0.579-0.812-0.987-1.112zM2.647 17.556c0.235-0.857 0.893-1.608 1.738-2.074l-0.658-5.351c-0.235-1.668-0.955-3.156-2.036-4.374v11.784h0.955v0.015zM5.466 23.929c0-0.812 0.125-1.548 0.298-2.3l-0.783-0.18c-1.143-0.346-2.036-1.203-2.334-2.3h-0.955v4.78h3.774zM9.178 23.929c0-0.977-0.783-1.834-1.801-1.954-0.172 0.631-0.298 1.263-0.298 1.954h2.099zM9.178 25.552h-1.864c0.298 1.263 0.955 2.42 1.864 3.397v-3.397zM11.809 20.547c-0.72-1.262-1.378-2.585-1.801-3.968-0.423 1.383-1.081 2.706-1.801 3.968 0.72 0.165 1.316 0.631 1.801 1.157 0.486-0.526 1.081-0.992 1.801-1.157zM12.952 23.929c0-0.691-0.125-1.323-0.297-1.954-1.018 0.12-1.801 0.977-1.801 1.954h2.099zM12.717 25.552h-1.864v3.397c0.908-0.992 1.566-2.134 1.864-3.397zM18.34 23.929v-4.78h-0.955c-0.298 1.097-1.206 1.954-2.334 2.3l-0.783 0.18c0.172 0.752 0.298 1.488 0.298 2.3h3.774zM18.34 17.556v-11.799c-1.081 1.202-1.864 2.706-2.036 4.374l-0.658 5.351c0.846 0.466 1.504 1.203 1.739 2.074h0.955z"></path>
</symbol>
<symbol id="icon-Mask-group-3" viewBox="0 0 82 32">
<path fill="#fff" style="fill: var(--color1, #fff)" d="M0 0h82v32h-82v-32z"></path>
</symbol>
        <symbol id="icon-image1" viewBox="0 0 87 32">
            <path fill="#fff" style="fill: var(--color1, #fff)" d="M0 6.4h86.7v19.2H0V6.4z" />
        </symbol>
        <symbol id="icon-image2" viewBox="0 0 87 32">
            <path stroke="#FFFFFF" d="M16.87 2.9h52.37v26.2H16.87V2.9z" />
        </symbol>
        <symbol id="icon-image3" viewBox="0 0 87 32">
            <path d="M0 11.64h86.7v8.72H0v-8.72z" />
        </symbol>
        <symbol id="icon-image4" viewBox="0 0 87 32">
            <path d="M5.82 5.82h75.05v20.36H5.82V5.82z" />
        </symbol>
        <symbol id="icon-image5" viewBox="0 0 87 32">
            <path d="M4.66 2.33h77.38v27.34H4.65V2.33z" />
        </symbol>
        <symbol id="icon-image6" viewBox="0 0 87 32">
            <path d="M12.8 5.82h61.1v20.36H12.8V5.82z" />
        </symbol>
        <symbol id="icon-image7" viewBox="0 0 87 32">
            <path d="M20.36 1.75h45.39v28.5H20.36V1.75z" />
        </symbol>
        <symbol id="icon-image8" viewBox="0 0 87 32">
            <path d="M19.2 4.66h47.13v22.69H19.2V4.65z" />
        </symbol>
        <symbol id="icon-image9svg" viewBox="0 0 87 32">
            <path d="M9.3 4.66h68.08v22.69H9.31V4.65z" />
        </symbol>
        <symbol id="icon-slider" viewBox="0 0 32 32">
<path fill="#fff" style="fill: var(--color1, #fff)" d="M16 32c-8.837 0-16-7.163-16-16s7.163-16 16-16c8.837 0 16 7.163 16 16s-7.163 16-16 16z"></path>
<path fill="#4f2ee8" style="fill: var(--color2, #4f2ee8)" d="M15.408 17.167c0.078 0.078 0.17 0.14 0.271 0.183s0.21 0.064 0.321 0.064 0.219-0.022 0.32-0.064c0.102-0.042 0.194-0.104 0.271-0.183l3.817-3.825c0.078-0.078 0.17-0.14 0.271-0.182s0.21-0.064 0.32-0.064 0.219 0.022 0.32 0.064c0.102 0.042 0.194 0.104 0.271 0.182 0.155 0.156 0.242 0.367 0.242 0.588s-0.087 0.431-0.242 0.588l-3.825 3.825c-0.469 0.468-1.104 0.731-1.767 0.731s-1.298-0.263-1.767-0.731l-3.825-3.825c-0.154-0.155-0.241-0.365-0.242-0.583-0.001-0.11 0.020-0.218 0.062-0.32s0.103-0.194 0.18-0.272c0.078-0.078 0.17-0.14 0.271-0.182s0.21-0.064 0.321-0.064 0.219 0.022 0.32 0.064c0.101 0.042 0.194 0.104 0.271 0.182l3.817 3.825z"></path>
</symbol>
    </defs>
</svg>