<svg xmlns="http://www.w3.org/2000/svg" aria-hidden="true" style="position:absolute;width:0;height:0;overflow:hidden">
    <defs>
        <symbol id="icon-dump" viewBox="0 0 32 32">
            <path d="M32 16a16 16 0 1 1-32 0 16 16 0 0 1 32 0z" />
            <path stroke-linecap="round" stroke-linejoin="round" stroke-width="1.41"
                d="M13.88 9.65h4.24m-8.47 2.12h12.7m-1.4 0-.5 7.42c-.08 1.11-.12 1.67-.36 2.1a2.1 2.1 0 0 1-.91.85c-.44.21-1 .21-2.12.21h-2.13c-1.11 0-1.67 0-2.1-.21-.4-.19-.71-.49-.93-.86-.24-.42-.27-.98-.35-2.09l-.5-7.42m3.54 3.17v3.53m2.82-3.53v3.53" />
        </symbol>
        <symbol id="icon-dump1" viewBox="0 0 32 32">
            <path d="M32 16a16 16 0 1 1-32 0 16 16 0 0 1 32 0z" />
            <path stroke-linecap="round" stroke-linejoin="round" stroke-width="1.41"
                d="M13.88 9.65h4.24m-8.47 2.12h12.7m-1.4 0-.5 7.42c-.08 1.11-.12 1.67-.36 2.1a2.1 2.1 0 0 1-.91.85c-.44.21-1 .21-2.12.21h-2.13c-1.11 0-1.67 0-2.1-.21-.4-.19-.71-.49-.93-.86-.24-.42-.27-.98-.35-2.09l-.5-7.42m3.54 3.17v3.53m2.82-3.53v3.53" />
        </symbol>
        <symbol id="icon-logo" viewBox="0 0 32 32">
            <path d="m0 0 16.34 16.17L32 32V0H0z" />
            <path d="M4.46 4.23 16.4 16.06l11.26 11.48H4.46V4.23z" />
            <path d="M27.73 27.62 15.8 15.79 4.53 4.3h23.2v23.32z" />
            <path d="m9.26 9.03 13.6 13.6H9.26V9.03z" />
            <path d="m9.26 9.03 13.6 13.6V9.03H9.26z" />
        </symbol>
        <symbol id="icon-icon-herb" viewBox="0 0 20 32">
            <path
                d="M9 30.89a8.66 8.66 0 0 1-3.4-5.3v-.05H0V2.42a9.8 9.8 0 0 1 5.39 7.88l.84 6.49-.4-.05c-.9 0-1.68.82-1.68 1.61 0 .75.6 1.38 1.38 1.55l1.02.23c1.67-3.06 2.63-6.05 2.63-8.98 0-2.64-.36-5.29-.43-8 0-1.2.49-2.3 1.26-3.15a4.66 4.66 0 0 1 1.25 3.16c0 2.7-.42 5.35-.42 8 0 2.92.95 5.91 2.63 8.97l1.02-.23c.78-.17 1.37-.81 1.37-1.55 0-.8-.78-1.6-1.67-1.6l-.42.05.84-6.49c.43-3.28 2.4-6.45 5.39-7.88v23.12h-5.58a8.27 8.27 0 0 1-3.41 5.35c-.42.29-.78.63-1.02 1.1A3 3 0 0 0 9 30.89zM2.66 17.56c.23-.86.89-1.61 1.74-2.08l-.66-5.35a8.28 8.28 0 0 0-2.05-4.38h.01v11.79h.96v.02zm2.82 6.37c0-.81.12-1.55.3-2.3l-.79-.18a3.38 3.38 0 0 1-2.33-2.3h-.96v4.78h3.78zm3.7 0c0-.98-.77-1.84-1.8-1.96-.17.63-.3 1.27-.3 1.96h2.1zm0 1.62H7.32c.3 1.26.96 2.42 1.87 3.4v-3.4zm2.64-5a19.83 19.83 0 0 1-1.8-3.97 19.78 19.78 0 0 1-1.8 3.97c.72.16 1.31.63 1.8 1.15.48-.52 1.08-.99 1.8-1.15zm1.14 3.38c0-.7-.12-1.32-.3-1.96-1.01.12-1.8.98-1.8 1.96h2.1zm-.23 1.62h-1.87v3.4c.91-1 1.57-2.14 1.87-3.4zm5.62-1.62v-4.78h-.96a3.41 3.41 0 0 1-2.33 2.3l-.78.18c.17.75.3 1.49.3 2.3h3.77zm0-6.37V5.76a7.8 7.8 0 0 0-2.04 4.37l-.65 5.35c.84.47 1.5 1.2 1.73 2.08h.96z" />
        </symbol>
        <symbol id="icon-user" viewBox="0 0 32 32">
            <path d="M32 16a16 16 0 1 1-32 0 16 16 0 0 1 32 0z" />
            <path d="M10.52 22.85a5.48 5.48 0 1 1 10.96 0H10.52zM16 16.68a4.1 4.1 0 1 1 0-8.2 4.1 4.1 0 0 1 0 8.2z" />
        </symbol>
        <symbol id="icon-align-left" viewBox="0 0 32 32">
            <path stroke-linecap="round" stroke-linejoin="round" stroke-width="2.29"
                d="M22.67 13.33H4M28 8H4M28 18.67H4M22.67 24H4" />
        </symbol>
        <symbol id="icon-lock" viewBox="0 0 32 32">
            <path stroke-linecap="round" stroke-linejoin="round" stroke-width="2.29"
                d="M22.67 14.67v-4a6.67 6.67 0 0 0-13.34 0v4M10.4 28h11.2c2.24 0 3.36 0 4.22-.44a4 4 0 0 0 1.74-1.74c.44-.86.44-1.98.44-4.22v-.53c0-2.24 0-3.36-.44-4.22a4 4 0 0 0-1.74-1.75c-.86-.43-1.98-.43-4.22-.43H10.4c-2.24 0-3.36 0-4.22.43a4 4 0 0 0-1.74 1.75C4 17.71 4 18.83 4 21.07v.53c0 2.24 0 3.36.44 4.22a4 4 0 0 0 1.74 1.74c.86.44 1.98.44 4.22.44z" />
        </symbol>
        <symbol id="icon-mail" viewBox="0 0 32 32">
            <path stroke-linecap="round" stroke-linejoin="round" stroke-width="2.29"
                d="m28.67 24-8.86-8m-7.62 0-8.86 8M2.67 9.33l10.88 7.62c.89.62 1.33.93 1.8 1.05.43.1.87.1 1.3 0a6.1 6.1 0 0 0 1.8-1.05l10.89-7.62M9.07 26.67h13.86c2.24 0 3.36 0 4.22-.44a4 4 0 0 0 1.75-1.75c.43-.85.43-1.97.43-4.21v-8.54c0-2.24 0-3.36-.43-4.21a4 4 0 0 0-1.75-1.75c-.86-.44-1.98-.44-4.22-.44H9.07c-2.24 0-3.36 0-4.22.44A4 4 0 0 0 3.1 7.52c-.43.85-.43 1.97-.43 4.21v8.54c0 2.24 0 3.36.43 4.21a4 4 0 0 0 1.75 1.75c.86.44 1.98.44 4.22.44z" />
        </symbol>
        <symbol id="icon-x-close" viewBox="0 0 32 32">
            <path stroke-linecap="round" stroke-linejoin="round" stroke-width="3.43" d="M24 8 8 24M8 8l16 16" />
        </symbol>
        <symbol id="icon-scrol-up" viewBox="0 0 32 32">
            <path
                d="M4.5 19.6 15.7 8.37c.13-.14.28-.23.43-.29s.33-.08.5-.08c.18 0 .35.03.5.08s.3.15.44.29L28.8 19.6c.31.31.47.7.47 1.17s-.17.86-.5 1.2a1.6 1.6 0 0 1-2.34 0l-9.8-9.8-9.8 9.8c-.3.3-.7.46-1.15.46s-.85-.16-1.18-.5a1.62 1.62 0 0 1 0-2.33z" />
        </symbol>
        <symbol id="icon-arrow-narrow-right" viewBox="0 0 32 32">
            <path stroke-linecap="round" stroke-linejoin="round" stroke-width="3.2"
                d="M5.33 16h21.34m0 0-8-8m8 8-8 8" />
        </symbol>
        <symbol id="icon-down-arrow" viewBox="0 0 28 32">
            <path d="M5.9 12H22.4L15 20.4a1.1 1.1 0 0 1-1.67 0L5.9 12z" />
        </symbol>
    </defs>
</svg>